<svg width="59" height="60" viewBox="0 0 59 60" fill="none" xmlns="http://www.w3.org/2000/svg">
<path d="M29.4998 19.3333C23.6065 19.3333 18.8332 24.1067 18.8332 30C18.8332 35.8933 23.6065 40.6667 29.4998 40.6667C35.3932 40.6667 40.1665 35.8933 40.1665 30C40.1665 24.1067 35.3932 19.3333 29.4998 19.3333ZM53.3398 27.3333C52.7358 21.9257 50.3109 16.8841 46.4633 13.0365C42.6157 9.18894 37.5742 6.76404 32.1665 6.16V3.33334C32.1665 1.86667 30.9665 0.666672 29.4998 0.666672C28.0332 0.666672 26.8332 1.86667 26.8332 3.33334V6.16C21.4255 6.76404 16.3839 9.18894 12.5364 13.0365C8.68877 16.8841 6.26387 21.9257 5.65984 27.3333H2.83317C1.3665 27.3333 0.166504 28.5333 0.166504 30C0.166504 31.4667 1.3665 32.6667 2.83317 32.6667H5.65984C6.26387 38.0743 8.68877 43.1159 12.5364 46.9635C16.3839 50.8111 21.4255 53.236 26.8332 53.84V56.6667C26.8332 58.1333 28.0332 59.3333 29.4998 59.3333C30.9665 59.3333 32.1665 58.1333 32.1665 56.6667V53.84C37.5742 53.236 42.6157 50.8111 46.4633 46.9635C50.3109 43.1159 52.7358 38.0743 53.3398 32.6667H56.1665C57.6332 32.6667 58.8332 31.4667 58.8332 30C58.8332 28.5333 57.6332 27.3333 56.1665 27.3333H53.3398ZM29.4998 48.6667C19.1798 48.6667 10.8332 40.32 10.8332 30C10.8332 19.68 19.1798 11.3333 29.4998 11.3333C39.8198 11.3333 48.1665 19.68 48.1665 30C48.1665 40.32 39.8198 48.6667 29.4998 48.6667Z" fill="#C494FF"/>
<path d="M29.4998 19.3333C23.6065 19.3333 18.8332 24.1067 18.8332 30C18.8332 35.8933 23.6065 40.6667 29.4998 40.6667C35.3932 40.6667 40.1665 35.8933 40.1665 30C40.1665 24.1067 35.3932 19.3333 29.4998 19.3333ZM53.3398 27.3333C52.7358 21.9257 50.3109 16.8841 46.4633 13.0365C42.6157 9.18894 37.5742 6.76404 32.1665 6.16V3.33334C32.1665 1.86667 30.9665 0.666672 29.4998 0.666672C28.0332 0.666672 26.8332 1.86667 26.8332 3.33334V6.16C21.4255 6.76404 16.3839 9.18894 12.5364 13.0365C8.68877 16.8841 6.26387 21.9257 5.65984 27.3333H2.83317C1.3665 27.3333 0.166504 28.5333 0.166504 30C0.166504 31.4667 1.3665 32.6667 2.83317 32.6667H5.65984C6.26387 38.0743 8.68877 43.1159 12.5364 46.9635C16.3839 50.8111 21.4255 53.236 26.8332 53.84V56.6667C26.8332 58.1333 28.0332 59.3333 29.4998 59.3333C30.9665 59.3333 32.1665 58.1333 32.1665 56.6667V53.84C37.5742 53.236 42.6157 50.8111 46.4633 46.9635C50.3109 43.1159 52.7358 38.0743 53.3398 32.6667H56.1665C57.6332 32.6667 58.8332 31.4667 58.8332 30C58.8332 28.5333 57.6332 27.3333 56.1665 27.3333H53.3398ZM29.4998 48.6667C19.1798 48.6667 10.8332 40.32 10.8332 30C10.8332 19.68 19.1798 11.3333 29.4998 11.3333C39.8198 11.3333 48.1665 19.68 48.1665 30C48.1665 40.32 39.8198 48.6667 29.4998 48.6667Z" fill="black" fill-opacity="0.2"/>
</svg>
